<?xml version="1.0" encoding="utf-8"?>
<!-- Generator: Adobe Illustrator 24.3.0, SVG Export Plug-In . SVG Version: 6.00 Build 0)  -->
<svg version="1.1" id="Layer_1" xmlns="http://www.w3.org/2000/svg" xmlns:xlink="http://www.w3.org/1999/xlink" x="0px" y="0px"
	 viewBox="0 0 16 16" style="enable-background:new 0 0 16 16;" xml:space="preserve">
<style type="text/css">
	.st0{fill:#FFFFFF;}
</style>
<path class="st0" d="M8.1,1.9c-1.7,0-1.9,0-2.5,0S4.4,2,4.1,2.2C3.7,2.3,3.3,2.6,3,2.9C2.6,3.2,2.4,3.6,2.2,4C2.1,4.4,2,4.8,1.9,5.5
	c0,0.7,0,0.8,0,2.5s0,1.9,0,2.5c0,0.7,0.2,1.1,0.3,1.5s0.4,0.8,0.7,1.1c0.3,0.3,0.7,0.5,1.1,0.7s0.8,0.2,1.5,0.3c0.7,0,0.8,0,2.5,0
	s1.9,0,2.5,0c0.7,0,1.1-0.2,1.5-0.3c0.4-0.2,0.8-0.4,1.1-0.7c0.3-0.3,0.5-0.7,0.7-1.1s0.2-0.8,0.3-1.5c0-0.7,0-0.8,0-2.5
	s0-1.9,0-2.5S13.9,4.4,13.8,4s-0.4-0.8-0.7-1.1S12.4,2.4,12,2.2c-0.4-0.2-0.8-0.2-1.5-0.3C9.9,1.9,9.8,1.9,8.1,1.9L8.1,1.9L8.1,1.9z
	 M7.5,2.9h0.5c1.6,0,1.9,0,2.5,0c0.6,0,0.9,0.2,1.2,0.2c0.3,0.1,0.5,0.2,0.7,0.5c0.2,0.2,0.4,0.4,0.5,0.7c0.1,0.2,0.2,0.5,0.2,1.2
	c0,0.6,0,0.8,0,2.5s0,1.9,0,2.5s-0.2,0.9-0.2,1.2c-0.1,0.2-0.2,0.5-0.5,0.7c-0.2,0.2-0.4,0.4-0.7,0.5c-0.2,0.1-0.5,0.2-1.2,0.2
	c-0.6,0-0.8,0-2.5,0s-1.9,0-2.5,0s-0.9-0.2-1.2-0.2c-0.2-0.1-0.5-0.2-0.7-0.5c-0.2-0.2-0.4-0.5-0.5-0.7c-0.1-0.2-0.2-0.5-0.2-1.2
	c0-0.6,0-0.8,0-2.5s0-1.9,0-2.5s0.2-0.9,0.2-1.2C3.4,4,3.5,3.9,3.8,3.6s0.4-0.4,0.7-0.5C4.7,3.2,5,3,5.6,3C6.1,3,6.4,2.9,7.5,2.9
	L7.5,2.9z M11.4,4c-0.4,0-0.8,0.3-0.8,0.8c0,0.5,0.3,0.8,0.8,0.8l0,0c0.4,0,0.8-0.3,0.8-0.8S11.8,4,11.4,4z M8.1,4.9
	C6.3,4.9,4.9,6.3,4.8,8c0,1.8,1.4,3.2,3.1,3.2H8c1.8,0,3.2-1.5,3.1-3.2C11.2,6.3,9.8,4.9,8.1,4.9z M8.1,6c1.2,0,2.1,0.9,2.1,2.1
	c0,1.2-0.9,2.1-2.1,2.1l0,0C6.9,10.1,6,9.2,6,8C6,6.9,6.9,6,8.1,6z"/>
</svg>
