<?xml version="1.0" encoding="utf-8"?>
<!-- Generator: Adobe Illustrator 24.3.0, SVG Export Plug-In . SVG Version: 6.00 Build 0)  -->
<svg version="1.1" id="Layer_1" xmlns="http://www.w3.org/2000/svg" xmlns:xlink="http://www.w3.org/1999/xlink" x="0px" y="0px"
	 viewBox="0 0 16 16" style="enable-background:new 0 0 16 16;" xml:space="preserve">
<style type="text/css">
	.st0{fill:#FFFFFF;}
</style>
<path class="st0" d="M5.8,12.8c4.5,0,7-3.8,7-7c0-0.1,0-0.2,0-0.3c0.5-0.4,0.9-0.8,1.2-1.3c-0.5,0.2-0.9,0.3-1.4,0.4
	c0.5-0.3,0.9-0.8,1.1-1.4c-0.5,0.3-1.1,0.5-1.5,0.6c-1.1-0.8-2.6-0.9-3.6,0C8,4.4,7.8,5.3,8,6.1C6,6,4.2,5.1,2.9,3.5
	C2.2,4.7,2.6,6.1,3.7,6.8c-0.4,0-0.8-0.2-1.2-0.3l0,0c0,1.2,0.8,2.2,1.9,2.4C4.3,9,4,9.1,3.8,9.1c-0.2,0-0.3,0-0.5-0.1
	c0.3,1,1.3,1.7,2.3,1.7c-0.9,0.7-1.9,1.1-3.1,1.1c-0.2,0-0.4,0-0.6,0C3.2,12.4,4.5,12.8,5.8,12.8z"/>
</svg>
